<svg id="visual" viewBox="0 0 900 600" width="900" height="600" xmlns="http://www.w3.org/2000/svg" xmlns:xlink="http://www.w3.org/1999/xlink" version="1.1"><rect x="0" y="0" width="900" height="600" fill="#212121"></rect><path d="M0 358L129 376L257 406L386 428L514 370L643 403L771 360L900 363L900 601L771 601L643 601L514 601L386 601L257 601L129 601L0 601Z" fill="#ff8f00"></path><path d="M0 470L129 436L257 467L386 437L514 468L643 398L771 413L900 442L900 601L771 601L643 601L514 601L386 601L257 601L129 601L0 601Z" fill="#afa200"></path><path d="M0 473L129 485L257 487L386 506L514 466L643 442L771 491L900 498L900 601L771 601L643 601L514 601L386 601L257 601L129 601L0 601Z" fill="#66a441"></path><path d="M0 495L129 541L257 540L386 483L514 487L643 484L771 532L900 489L900 601L771 601L643 601L514 601L386 601L257 601L129 601L0 601Z" fill="#1c9b71"></path><path d="M0 564L129 550L257 572L386 574L514 551L643 537L771 554L900 531L900 601L771 601L643 601L514 601L386 601L257 601L129 601L0 601Z" fill="#008c8c"></path></svg>